<svg width="22" height="21" viewBox="0 0 22 21" fill="none" xmlns="http://www.w3.org/2000/svg">
<path d="M2.6908 9.93987C2.6908 8.83988 3.19451 7.80045 4.05787 7.11885L8.9999 3.21725C10.3057 2.18634 12.1483 2.18634 13.4542 3.21724L18.3962 7.11884C19.2595 7.80045 19.7633 8.83988 19.7633 9.93987V15.8358C19.7633 17.8208 18.1541 19.43 16.1691 19.43H14.8212C14.325 19.43 13.9227 19.0277 13.9227 18.5314V15.8358C13.9227 14.8433 13.1181 14.0387 12.1256 14.0387H10.3285C9.33596 14.0387 8.53138 14.8433 8.53138 15.8358V18.5315C8.53138 19.0277 8.12908 19.43 7.63282 19.43H6.285C4.29998 19.43 2.6908 17.8208 2.6908 15.8358L2.6908 9.93987Z" stroke="#FEFEFD" stroke-width="1.34783"/>
</svg>
