<svg width="22" height="21" viewBox="0 0 22 21" fill="none" xmlns="http://www.w3.org/2000/svg">
<path d="M16.1945 8.57983L18.0837 9.60177L18.4791 9.82396C19.3217 10.2974 19.3217 11.5178 18.4791 11.9912L13.1133 15.0059C11.8688 15.7051 10.3534 15.7051 9.1089 15.0059L3.74302 11.9912C2.90044 11.5178 2.90044 10.2974 3.74302 9.82396L4.1385 9.60177L5.92294 8.57983M16.6054 13.1299L18.3226 13.9943C19.2082 14.4401 19.2366 15.702 18.372 16.1878L13.1133 19.1423C11.8688 19.8415 10.3534 19.8415 9.1089 19.1423L3.9269 16.2309C3.04744 15.7368 3.0959 14.4469 4.00992 14.0211L5.92294 13.1299M13.1133 10.61L18.4791 7.59523C19.3217 7.12185 19.3217 5.90141 18.4792 5.42802L13.1133 2.4133C11.8688 1.71412 10.3534 1.71412 9.1089 2.4133L3.74302 5.42802C2.90044 5.9014 2.90044 7.12185 3.74302 7.59523L9.1089 10.61C10.3534 11.3091 11.8688 11.3091 13.1133 10.61Z" stroke="#FEFEFE" stroke-width="1.33333"/>
</svg>
