<svg width="16" height="16" viewBox="0 0 16 16" fill="none" xmlns="http://www.w3.org/2000/svg">
<path fill-rule="evenodd" clip-rule="evenodd" d="M7.67455 1.58813C4.25121 1.58813 1.48407 4.35528 1.48407 7.77861C1.48407 11.2019 4.25121 13.9691 7.67455 13.9691C11.0979 13.9691 13.865 11.2019 13.865 7.77861C13.865 4.35528 11.0979 1.58813 7.67455 1.58813ZM7.67455 12.731C4.94455 12.731 2.72217 10.5086 2.72217 7.77861C2.72217 5.04861 4.94455 2.82623 7.67455 2.82623C10.4045 2.82623 12.6269 5.04861 12.6269 7.77861C12.6269 10.5086 10.4045 12.731 7.67455 12.731ZM7.67455 6.90575L9.89693 4.68337L10.7698 5.55623L8.5474 7.77861L10.7698 10.001L9.89693 10.8738L7.67455 8.65147L5.45217 10.8738L4.57931 10.001L6.80169 7.77861L4.57931 5.55623L5.45217 4.68337L7.67455 6.90575Z" fill="#539BBB"/>
</svg>
