<svg width="15" height="16" viewBox="0 0 15 16" fill="none" xmlns="http://www.w3.org/2000/svg">
<path fill-rule="evenodd" clip-rule="evenodd" d="M9.14504 8.5649L12.6922 12.112L11.7698 13.0344L8.22266 9.48728C7.56028 9.96394 6.7617 10.2549 5.88885 10.2549C3.66646 10.2549 1.86504 8.45347 1.86504 6.23109C1.86504 4.0087 3.66646 2.20728 5.88885 2.20728C8.11123 2.20728 9.91266 4.0087 9.91266 6.23109C9.91266 7.10394 9.6217 7.90251 9.14504 8.5649ZM5.88885 3.44537C4.34742 3.44537 3.10313 4.68966 3.10313 6.23109C3.10313 7.77251 4.34742 9.0168 5.88885 9.0168C7.43027 9.0168 8.67456 7.77251 8.67456 6.23109C8.67456 4.68966 7.43027 3.44537 5.88885 3.44537Z" fill="#539BBB"/>
</svg>
